<mxfile host="app.diagrams.net" modified="2023-02-19T08:42:52.724Z" agent="5.0 (Macintosh; Intel Mac OS X 10_15_7) AppleWebKit/537.36 (KHTML, like Gecko) Chrome/109.0.0.0 Safari/537.36" version="20.7.4" etag="ycpE5A1BPdgl8HPDEk5L" type="github">
  <diagram id="ZNxM2G3rRZDFVdf5SpDk" name="第 1 页">
    <mxGraphModel dx="1242" dy="705" grid="1" gridSize="10" guides="1" tooltips="1" connect="1" arrows="1" fold="1" page="1" pageScale="1" pageWidth="827" pageHeight="1169" math="0" shadow="0">
      <root>
        <mxCell id="0" />
        <mxCell id="1" parent="0" />
        <mxCell id="UzNGKg4tsw6Y8r-9Y7HO-1" value="" style="endArrow=classic;html=1;rounded=0;fontSize=12;" edge="1" parent="1">
          <mxGeometry width="50" height="50" relative="1" as="geometry">
            <mxPoint x="100" y="360" as="sourcePoint" />
            <mxPoint x="760" y="360" as="targetPoint" />
          </mxGeometry>
        </mxCell>
        <mxCell id="UzNGKg4tsw6Y8r-9Y7HO-2" value="&lt;b&gt;序列化&lt;/b&gt;" style="text;html=1;strokeColor=none;fillColor=none;align=center;verticalAlign=middle;whiteSpace=wrap;rounded=0;fontSize=12;" vertex="1" parent="1">
          <mxGeometry x="210" y="230" width="62" height="30" as="geometry" />
        </mxCell>
        <mxCell id="UzNGKg4tsw6Y8r-9Y7HO-3" value="反序列化" style="text;html=1;strokeColor=none;fillColor=none;align=center;verticalAlign=middle;whiteSpace=wrap;rounded=0;fontSize=12;fontStyle=1" vertex="1" parent="1">
          <mxGeometry x="530" y="230" width="62" height="30" as="geometry" />
        </mxCell>
        <mxCell id="UzNGKg4tsw6Y8r-9Y7HO-6" value="&lt;h1 style=&quot;font-size: 12px;&quot;&gt;&lt;span style=&quot;font-size: 12px;&quot;&gt;Serializable接口&lt;/span&gt;&lt;br style=&quot;font-size: 12px;&quot;&gt;&lt;/h1&gt;&lt;p style=&quot;font-size: 12px;&quot;&gt;1.是个标记接口，无抽象方法；&lt;/p&gt;&lt;p style=&quot;font-size: 12px;&quot;&gt;2.若要干预序列化过程&lt;/p&gt;&lt;p style=&quot;font-size: 12px;&quot;&gt;&lt;/p&gt;&lt;ul style=&quot;font-size: 12px;&quot;&gt;&lt;li style=&quot;font-size: 12px;&quot;&gt;可在实现了&lt;span style=&quot;background-color: initial; font-size: 12px;&quot;&gt;Serializable接口的类中，添加writeReplace/writeObject；&lt;/span&gt;&lt;/li&gt;&lt;li style=&quot;font-size: 12px;&quot;&gt;可在实现了&lt;span style=&quot;border-color: var(--border-color); background-color: initial; font-size: 12px;&quot;&gt;Serializable接口的类中，添加readObject/readReplace；&lt;/span&gt;&lt;/li&gt;&lt;/ul&gt;&lt;p style=&quot;font-size: 12px;&quot;&gt;&lt;/p&gt;" style="text;html=1;strokeColor=none;fillColor=none;spacing=5;spacingTop=-20;whiteSpace=wrap;overflow=hidden;rounded=0;fontSize=12;" vertex="1" parent="1">
          <mxGeometry x="170" y="600" width="520" height="150" as="geometry" />
        </mxCell>
        <mxCell id="UzNGKg4tsw6Y8r-9Y7HO-7" value="&lt;meta charset=&quot;utf-8&quot; style=&quot;font-size: 12px;&quot;&gt;&lt;article data-content=&quot;[{&amp;quot;type&amp;quot;:&amp;quot;block&amp;quot;,&amp;quot;id&amp;quot;:&amp;quot;h9pv-1676794430915&amp;quot;,&amp;quot;name&amp;quot;:&amp;quot;paragraph&amp;quot;,&amp;quot;data&amp;quot;:{&amp;quot;style&amp;quot;:{}},&amp;quot;nodes&amp;quot;:[{&amp;quot;type&amp;quot;:&amp;quot;text&amp;quot;,&amp;quot;id&amp;quot;:&amp;quot;i8FP-1676794430914&amp;quot;,&amp;quot;leaves&amp;quot;:[{&amp;quot;text&amp;quot;:&amp;quot;writeReplace&amp;quot;,&amp;quot;marks&amp;quot;:[]}]}],&amp;quot;state&amp;quot;:{}}]&quot; style=&quot;font-size: 12px;&quot;&gt;&lt;div style=&quot;line-height: 1.75; font-size: 12px; text-align: left;&quot;&gt;writeReplace&lt;/div&gt;&lt;/article&gt;" style="text;html=1;align=center;verticalAlign=middle;resizable=0;points=[];autosize=1;strokeColor=none;fillColor=none;fontSize=12;" vertex="1" parent="1">
          <mxGeometry x="145" y="315" width="90" height="30" as="geometry" />
        </mxCell>
        <mxCell id="UzNGKg4tsw6Y8r-9Y7HO-8" value="&lt;article data-content=&quot;[{&amp;quot;type&amp;quot;:&amp;quot;block&amp;quot;,&amp;quot;id&amp;quot;:&amp;quot;h9pv-1676794430915&amp;quot;,&amp;quot;name&amp;quot;:&amp;quot;paragraph&amp;quot;,&amp;quot;data&amp;quot;:{&amp;quot;style&amp;quot;:{}},&amp;quot;nodes&amp;quot;:[{&amp;quot;type&amp;quot;:&amp;quot;text&amp;quot;,&amp;quot;id&amp;quot;:&amp;quot;i8FP-1676794430914&amp;quot;,&amp;quot;leaves&amp;quot;:[{&amp;quot;text&amp;quot;:&amp;quot;writeReplace&amp;quot;,&amp;quot;marks&amp;quot;:[]}]}],&amp;quot;state&amp;quot;:{}}]&quot; style=&quot;font-size: 12px;&quot;&gt;&lt;div style=&quot;line-height: 1.75; font-size: 12px; text-align: left;&quot;&gt;writeObject&lt;/div&gt;&lt;/article&gt;" style="text;html=1;align=center;verticalAlign=middle;resizable=0;points=[];autosize=1;strokeColor=none;fillColor=none;fontSize=12;" vertex="1" parent="1">
          <mxGeometry x="280" y="315" width="80" height="30" as="geometry" />
        </mxCell>
        <mxCell id="UzNGKg4tsw6Y8r-9Y7HO-9" value="&lt;article data-content=&quot;[{&amp;quot;type&amp;quot;:&amp;quot;block&amp;quot;,&amp;quot;id&amp;quot;:&amp;quot;h9pv-1676794430915&amp;quot;,&amp;quot;name&amp;quot;:&amp;quot;paragraph&amp;quot;,&amp;quot;data&amp;quot;:{&amp;quot;style&amp;quot;:{}},&amp;quot;nodes&amp;quot;:[{&amp;quot;type&amp;quot;:&amp;quot;text&amp;quot;,&amp;quot;id&amp;quot;:&amp;quot;i8FP-1676794430914&amp;quot;,&amp;quot;leaves&amp;quot;:[{&amp;quot;text&amp;quot;:&amp;quot;writeReplace&amp;quot;,&amp;quot;marks&amp;quot;:[]}]}],&amp;quot;state&amp;quot;:{}}]&quot; style=&quot;font-size: 12px;&quot;&gt;&lt;div style=&quot;line-height: 1.75; font-size: 12px; text-align: left;&quot;&gt;readObject&lt;/div&gt;&lt;/article&gt;" style="text;html=1;align=center;verticalAlign=middle;resizable=0;points=[];autosize=1;strokeColor=none;fillColor=none;fontSize=12;" vertex="1" parent="1">
          <mxGeometry x="435" y="315" width="80" height="30" as="geometry" />
        </mxCell>
        <mxCell id="UzNGKg4tsw6Y8r-9Y7HO-10" value="&lt;article data-content=&quot;[{&amp;quot;type&amp;quot;:&amp;quot;block&amp;quot;,&amp;quot;id&amp;quot;:&amp;quot;h9pv-1676794430915&amp;quot;,&amp;quot;name&amp;quot;:&amp;quot;paragraph&amp;quot;,&amp;quot;data&amp;quot;:{&amp;quot;style&amp;quot;:{}},&amp;quot;nodes&amp;quot;:[{&amp;quot;type&amp;quot;:&amp;quot;text&amp;quot;,&amp;quot;id&amp;quot;:&amp;quot;i8FP-1676794430914&amp;quot;,&amp;quot;leaves&amp;quot;:[{&amp;quot;text&amp;quot;:&amp;quot;writeReplace&amp;quot;,&amp;quot;marks&amp;quot;:[]}]}],&amp;quot;state&amp;quot;:{}}]&quot; style=&quot;font-size: 12px;&quot;&gt;&lt;div style=&quot;line-height: 1.75; font-size: 12px; text-align: left;&quot;&gt;readReplace&lt;/div&gt;&lt;/article&gt;" style="text;html=1;align=center;verticalAlign=middle;resizable=0;points=[];autosize=1;strokeColor=none;fillColor=none;fontSize=12;" vertex="1" parent="1">
          <mxGeometry x="585" y="315" width="90" height="30" as="geometry" />
        </mxCell>
        <mxCell id="UzNGKg4tsw6Y8r-9Y7HO-11" value="&lt;article data-content=&quot;[{&amp;quot;type&amp;quot;:&amp;quot;block&amp;quot;,&amp;quot;id&amp;quot;:&amp;quot;NLdC-1676794239760&amp;quot;,&amp;quot;name&amp;quot;:&amp;quot;paragraph&amp;quot;,&amp;quot;data&amp;quot;:{&amp;quot;version&amp;quot;:1,&amp;quot;style&amp;quot;:{}},&amp;quot;nodes&amp;quot;:[{&amp;quot;type&amp;quot;:&amp;quot;text&amp;quot;,&amp;quot;id&amp;quot;:&amp;quot;OHDT-1676794239759&amp;quot;,&amp;quot;leaves&amp;quot;:[{&amp;quot;text&amp;quot;:&amp;quot;将任意对象代替目标序列化对象。&amp;quot;,&amp;quot;marks&amp;quot;:[]}]}],&amp;quot;state&amp;quot;:{}}]&quot; style=&quot;font-size: 12px;&quot;&gt;&lt;div style=&quot;line-height: 1.75; font-size: 12px; text-align: left;&quot;&gt;将任意对象代替目标序列化对象。&lt;/div&gt;&lt;/article&gt;" style="text;html=1;strokeColor=none;fillColor=none;align=center;verticalAlign=middle;whiteSpace=wrap;rounded=0;fontSize=12;" vertex="1" parent="1">
          <mxGeometry x="145" y="390" width="120" height="20" as="geometry" />
        </mxCell>
        <mxCell id="UzNGKg4tsw6Y8r-9Y7HO-13" value="&lt;article data-content=&quot;[{&amp;quot;type&amp;quot;:&amp;quot;block&amp;quot;,&amp;quot;id&amp;quot;:&amp;quot;NLdC-1676794239760&amp;quot;,&amp;quot;name&amp;quot;:&amp;quot;paragraph&amp;quot;,&amp;quot;data&amp;quot;:{&amp;quot;version&amp;quot;:1,&amp;quot;style&amp;quot;:{}},&amp;quot;nodes&amp;quot;:[{&amp;quot;type&amp;quot;:&amp;quot;text&amp;quot;,&amp;quot;id&amp;quot;:&amp;quot;OHDT-1676794239759&amp;quot;,&amp;quot;leaves&amp;quot;:[{&amp;quot;text&amp;quot;:&amp;quot;将任意对象代替目标序列化对象。&amp;quot;,&amp;quot;marks&amp;quot;:[]}]}],&amp;quot;state&amp;quot;:{}}]&quot; style=&quot;font-size: 12px;&quot;&gt;&lt;div style=&quot;line-height: 1.75; font-size: 12px; text-align: left;&quot;&gt;反序列化出对象&lt;/div&gt;&lt;/article&gt;" style="text;html=1;strokeColor=none;fillColor=none;align=center;verticalAlign=middle;whiteSpace=wrap;rounded=0;fontSize=12;" vertex="1" parent="1">
          <mxGeometry x="435" y="390" width="85" height="20" as="geometry" />
        </mxCell>
        <mxCell id="UzNGKg4tsw6Y8r-9Y7HO-14" value="&lt;article data-content=&quot;[{&amp;quot;type&amp;quot;:&amp;quot;block&amp;quot;,&amp;quot;id&amp;quot;:&amp;quot;NLdC-1676794239760&amp;quot;,&amp;quot;name&amp;quot;:&amp;quot;paragraph&amp;quot;,&amp;quot;data&amp;quot;:{&amp;quot;version&amp;quot;:1,&amp;quot;style&amp;quot;:{}},&amp;quot;nodes&amp;quot;:[{&amp;quot;type&amp;quot;:&amp;quot;text&amp;quot;,&amp;quot;id&amp;quot;:&amp;quot;OHDT-1676794239759&amp;quot;,&amp;quot;leaves&amp;quot;:[{&amp;quot;text&amp;quot;:&amp;quot;将任意对象代替目标序列化对象。&amp;quot;,&amp;quot;marks&amp;quot;:[]}]}],&amp;quot;state&amp;quot;:{}}]&quot; style=&quot;font-size: 12px;&quot;&gt;&lt;div style=&quot;line-height: 1.75; font-size: 12px; text-align: left;&quot;&gt;替换&lt;span style=&quot;background-color: initial; font-size: 12px;&quot;&gt;反序列化出的对象&lt;/span&gt;&lt;/div&gt;&lt;/article&gt;" style="text;html=1;strokeColor=none;fillColor=none;align=center;verticalAlign=middle;whiteSpace=wrap;rounded=0;fontSize=12;" vertex="1" parent="1">
          <mxGeometry x="592" y="390" width="120" height="20" as="geometry" />
        </mxCell>
        <mxCell id="UzNGKg4tsw6Y8r-9Y7HO-15" value="&lt;article data-content=&quot;[{&amp;quot;type&amp;quot;:&amp;quot;block&amp;quot;,&amp;quot;id&amp;quot;:&amp;quot;NLdC-1676794239760&amp;quot;,&amp;quot;name&amp;quot;:&amp;quot;paragraph&amp;quot;,&amp;quot;data&amp;quot;:{&amp;quot;version&amp;quot;:1,&amp;quot;style&amp;quot;:{}},&amp;quot;nodes&amp;quot;:[{&amp;quot;type&amp;quot;:&amp;quot;text&amp;quot;,&amp;quot;id&amp;quot;:&amp;quot;OHDT-1676794239759&amp;quot;,&amp;quot;leaves&amp;quot;:[{&amp;quot;text&amp;quot;:&amp;quot;将任意对象代替目标序列化对象。&amp;quot;,&amp;quot;marks&amp;quot;:[]}]}],&amp;quot;state&amp;quot;:{}}]&quot; style=&quot;font-size: 12px;&quot;&gt;&lt;div style=&quot;line-height: 1.75; font-size: 12px; text-align: left;&quot;&gt;&lt;span style=&quot;font-size: 12px; background-color: initial;&quot;&gt;设置要序列化&lt;/span&gt;&lt;/div&gt;&lt;div style=&quot;border-color: var(--border-color); line-height: 1.75; font-size: 12px; text-align: left;&quot;&gt;哪些字段&lt;/div&gt;&lt;/article&gt;" style="text;html=1;strokeColor=none;fillColor=none;align=center;verticalAlign=middle;whiteSpace=wrap;rounded=0;fontSize=12;" vertex="1" parent="1">
          <mxGeometry x="272" y="390" width="120" height="20" as="geometry" />
        </mxCell>
      </root>
    </mxGraphModel>
  </diagram>
</mxfile>
